<?xml version="1.0" standalone="no"?><!DOCTYPE svg PUBLIC "-//W3C//DTD SVG 1.1//EN" "http://www.w3.org/Graphics/SVG/1.1/DTD/svg11.dtd"><svg t="1573869704748" class="icon" viewBox="0 0 1024 1024" version="1.1" xmlns="http://www.w3.org/2000/svg" p-id="1278" xmlns:xlink="http://www.w3.org/1999/xlink" width="200" height="200"><defs><style type="text/css"></style></defs><path d="M774.7 812.9H362c-35.9 0-65.2-29.2-65.2-65.1v-27c0-35.9 29.2-65.2 65.2-65.2h412.8c12.1 0 21.9 9.8 21.9 21.9s-9.8 21.9-21.9 21.9H362c-11.8 0-21.4 9.6-21.4 21.4v27c0 11.8 9.6 21.3 21.4 21.3h412.8c12.1 0 21.9 9.8 21.9 21.9-0.1 12.1-9.9 21.9-22 21.9z" fill="#436DAA" p-id="1279"></path><path d="M772.8 699.4c-12.1 0-21.9-9.8-21.9-21.9s9.8-21.9 21.9-21.9c19.4 0 36-13.2 40.4-32l56.7-242c3-12.6 0-25.6-8-35.7-8-10.1-20-15.9-33-15.9h-546c-20.9 0-40.7-10.2-52.9-27.2l-118.1-168c-7-9.9-4.6-23.5 5.3-30.5 9.9-7 23.5-4.5 30.5 5.3l117.9 167.7c3.9 5.4 10.4 8.7 17.2 8.7h546c26.4 0 50.9 11.8 67.3 32.5s22.4 47.3 16.3 73l-56.7 242c-9 38.8-43.1 65.9-82.9 65.9zM422.8 928.3c-30 0-54.3-24.4-54.3-54.3 0-30 24.4-54.3 54.3-54.3 30 0 54.3 24.4 54.3 54.3s-24.4 54.3-54.3 54.3z m0-64.9c-5.8 0-10.5 4.7-10.5 10.5s4.7 10.5 10.5 10.5 10.5-4.7 10.5-10.5-4.7-10.5-10.5-10.5zM670.6 928.3c-30 0-54.3-24.4-54.3-54.3 0-30 24.4-54.3 54.3-54.3S725 844 725 873.9c0 30-24.4 54.4-54.4 54.4z m0-64.9c-5.8 0-10.5 4.7-10.5 10.5s4.7 10.5 10.5 10.5 10.5-4.7 10.5-10.5c0.1-5.8-4.7-10.5-10.5-10.5z" fill="#436DAA" p-id="1280"></path><path d="M731.5 465.9H340.8c-12.1 0-21.9-9.8-21.9-21.9 0-12.1 9.8-21.9 21.9-21.9h390.7c12.1 0 21.9 9.8 21.9 21.9 0 12.2-9.8 21.9-21.9 21.9zM660 590.3H412.2c-12.1 0-21.9-9.8-21.9-21.9 0-12.1 9.8-21.9 21.9-21.9H660c12.1 0 21.9 9.8 21.9 21.9 0 12.1-9.8 21.9-21.9 21.9z" fill="#FFBC00" p-id="1281"></path></svg>